<svg xmlns="http://www.w3.org/2000/svg" xml:space="preserve" viewBox="0 0 512 512"><path d="M271 31H0v408h55v42l41-16 41 16v-42h375V31H271zm0 30h211v297H271V61zM55 409H30v-20h25v20zm52 28-11-4-11 4v-48h22v48zm0-79H30V61h211v297H107zm88 51h-58v-20h58v20zm91 0h-60v-20h60v20zm31 0v-20h165v20H317z"/><path d="M62 93h148v31H62zm0 51h148v30H62zm108 50h40v31h-40zm-108 0h88v31H62zM302 93h40v31h-40zm61 0h87v31h-87zM62 296h39v30H62zm60 0h88v30h-88zm-60-51h148v31H62zm240-101h148v30H302zm0 50h148v31H302zm0 51h148v31H302zm0 51h98v30h-98z"/></svg>