<svg xmlns="http://www.w3.org/2000/svg" xml:space="preserve" viewBox="0 0 512 512"><path d="M438 0H74v461h216v51l41-16 41 16v-51h66V0zM320 468v-28h1a51 51 0 0 0 3 1h14l2-1h2v28l-11-5-11 5zm28-63-1 1-1 1h-1l-1 1a31 31 0 0 1-4 1 30 30 0 0 1-4 1h-1l-1 1h-1a31 31 0 0 1-7-1 30 30 0 0 1-4-1h-1a31 31 0 0 1-3-1l-1-1h-1l-1-1-1-1a30 30 0 1 1 34 0zm24 26v-6a61 61 0 0 0-41-106 61 61 0 0 0-41 106v6H104V30h304v401h-36z"/><path d="M136 365h102v30H136zm0-96h240v30H136zm0-51h240v30H136zm0-51h240v31H136zm0-50h240v30H136zm57-51h126v30H193z"/></svg>